#!OML:ASF F:\twosubjects\two\Thursday\Session 1\Rory.ASF
:FULLY-SPECIFIED
:DEGREES
286
root 9.63242 13.2319 5.07277 -138.349 -85.4135 113.443
lowerback 34.817 1.41405 -1.71553
upperback 12.68 -0.531583 -1.25798
thorax -3.67844 -0.983679 -0.186241
lowerneck -9.86412 -7.51392 -10.469
upperneck 34.9223 -16.8825 15.5877
head 16.6876 -7.39273 5.4804
rclavicle 2.60905e-016 -1.47846e-014
rhumerus 1.54544 19.0284 -86.644
rradius 44.5972
rwrist 23.3411
rhand -35.8404 39.9102
rfingers 7.12502
rthumb -8.95575 10.1203
lclavicle 2.60905e-016 -1.47846e-014
lhumerus 6.80825 -28.8363 81.1123
lradius 38.7186
lwrist -29.2627
lhand -23.2444 29.7018
lfingers 7.12502
lthumb 3.20713 59.6574
rfemur -45.8184 -9.84883 7.93093
rtibia 64.2412
rfoot 9.63078 -3.16408
rtoes -1.65875
lfemur -42.923 4.7699 -12.4183
ltibia 59.5579
lfoot 10.0847 6.39134
ltoes 32.486
287
root 9.63389 13.2279 5.06884 -139.626 -85.4632 114.693
lowerback 34.1418 1.52336 -2.36227
upperback 13.2402 -0.604901 -0.863396
thorax -2.82431 -1.09498 0.576629
lowerneck -10.5079 -7.39484 -10.6823
upperneck 34.8708 -16.4403 15.4191
head 16.722 -7.1988 5.50812
rclavicle 5.39203e-015 1.98785e-015
rhumerus 2.37693 19.8402 -86.0883
rradius 44.6794
rwrist 23.6403
rhand -35.5894 40.4039
rfingers 7.12502
rthumb -8.71361 10.6037
lclavicle 5.39203e-015 1.98785e-015
lhumerus 7.47291 -27.7267 81.1234
lradius 38.6507
lwrist -29.6439
lhand -23.1547 30.2054
lfingers 7.12502
lthumb 3.29366 60.1597
rfemur -45.8399 -9.73207 8.06888
rtibia 64.2665
rfoot 9.70743 -3.32492
rtoes -1.65386
lfemur -42.9104 4.89259 -12.3298
ltibia 59.5556
lfoot 10.2384 6.18663
ltoes 32.0665
288
root 9.63432 13.2228 5.06761 -141.668 -85.5049 116.786
lowerback 34.2979 1.51423 -2.02519
upperback 13.0911 -0.508505 -0.988018
thorax -3.04647 -1.01971 0.241754
lowerneck -10.3752 -7.33014 -10.6661
upperneck 34.9302 -16.5314 15.7292
head 16.7882 -7.22191 5.63984
rclavicle 2.26118e-015 -3.47873e-016
rhumerus 2.09923 19.543 -86.3641
rradius 44.6165
rwrist 23.2733
rhand -35.416 40.3795
rfingers 7.12502
rthumb -8.54625 10.5725
lclavicle 2.26118e-015 -3.47873e-016
lhumerus 7.32443 -28.0347 81.0416
lradius 38.6295
lwrist -30.4737
lhand -23.0502 30.906
lfingers 7.12502
lthumb 3.39467 60.8587
rfemur -45.9032 -9.53249 8.2426
rtibia 64.2495
rfoot 9.75205 -3.45219
rtoes -1.81431
lfemur -42.9785 5.02236 -12.1735
ltibia 59.565
lfoot 10.3581 6.0492
ltoes 32.2818
289
root 9.63408 13.2215 5.06496 -143.041 -85.5455 118.201
lowerback 34.975 1.43156 -1.19031
upperback 12.5192 -0.34083 -1.44135
thorax -3.91251 -0.858481 -0.714928
lowerneck -9.70211 -7.33129 -10.3651
upperneck 35.0093 -16.9373 16.1372
head 16.7844 -7.37579 5.71944
rclavicle -1.23371e-014 -1.6027e-014
rhumerus 1.04904 18.2567 -87.0662
rradius 44.7749
rwrist 24.0508
rhand -35.32 40.5888
rfingers 7.12502
rthumb -8.45357 10.778
lclavicle -1.23371e-014 -1.6027e-014
lhumerus 6.60516 -29.1429 80.8688
lradius 38.7936
lwrist -30.9201
lhand -22.5755 30.8764
lfingers 7.12502
lthumb 3.85305 60.8214
rfemur -45.8966 -9.24768 8.33342
rtibia 64.2011
rfoot 9.72381 -3.59203
rtoes -2.37541
lfemur -43.0199 5.1145 -12.0287
ltibia 59.5504
lfoot 10.3199 6.1469
ltoes 32.9356
290
root 9.63634 13.2269 5.06437 -143.756 -85.6133 118.913
lowerback 35.2326 1.38581 -0.723471
upperback 12.3169 -0.255298 -1.75333
thorax -4.22493 -0.782366 -1.31278
lowerneck -9.40957 -7.32929 -9.85394
upperneck 35.0163 -17.1971 16.3029
head 16.7427 -7.43206 5.65948
rclavicle 3.85145e-015 2.78299e-015
rhumerus 0.532978 17.7019 -87.4666
rradius 44.8073
rwrist 23.3733
rhand -35.3239 41.1278
rfingers 7.12502
rthumb -8.45738 11.3171
lclavicle 3.85145e-015 2.78299e-015
lhumerus 6.24983 -29.9625 80.5588
lradius 39.0544
lwrist -30.419
lhand -22.7045 31.3486
lfingers 7.12502
lthumb 3.7285 61.2957
rfemur -45.8163 -9.10735 8.38041
rtibia 64.1385
rfoot 9.68747 -3.75925
rtoes -1.54229
lfemur -42.9921 5.16061 -11.9126
ltibia 59.4961
lfoot 10.3004 6.24115
ltoes 33.4508
291
root 9.63968 13.2323 5.06599 -139.989 -85.471 115.023
lowerback 34.7143 1.56379 -1.37847
upperback 12.9029 -0.282385 -1.64394
thorax -3.40673 -0.851093 -0.851993
lowerneck -10.0776 -7.37968 -9.64025
upperneck 34.8549 -17.1446 16.2074
head 16.773 -7.33453 5.55165
rclavicle -3.37934e-015 -2.18663e-015
rhumerus 1.29705 18.0197 -87.0374
rradius 45.066
rwrist 23.543
rhand -35.3503 41.0413
rfingers 7.12502
rthumb -8.48285 11.2317
lclavicle -3.37934e-015 -2.18663e-015
lhumerus 6.98894 -29.3962 80.2996
lradius 39.1581
lwrist -30.4532
lhand -22.6054 31.5458
lfingers 7.12502
lthumb 3.82419 61.4912
rfemur -45.6602 -9.2025 7.97065
rtibia 64.1203
rfoot 9.67429 -3.82839
rtoes 0.156883
lfemur -42.8384 5.16037 -12.3147
ltibia 59.4172
lfoot 10.3682 6.13006
ltoes 32.3348
292
root 9.64593 13.2392 5.0677 -137.349 -85.4345 112.283
lowerback 34.9 1.59925 -1.28186
upperback 12.9455 -0.228758 -1.749
thorax -3.42614 -0.821744 -1.0302
lowerneck -10.1149 -7.49573 -9.64882
upperneck 34.6826 -17.3902 16.4839
head 16.7923 -7.40935 5.61842
rclavicle 4.69629e-015 7.65321e-015
rhumerus 1.08181 17.7696 -86.9259
rradius 45.337
rwrist 22.8938
rhand -34.8361 41.1844
rfingers 7.12502
rthumb -7.98656 11.3552
lclavicle 4.69629e-015 7.65321e-015
lhumerus 7.09433 -29.695 80.1678
lradius 39.3026
lwrist -31.0593
lhand -22.2179 31.6434
lfingers 7.12502
lthumb 4.19832 61.5818
rfemur -45.5271 -9.27419 7.69425
rtibia 64.1195
rfoot 9.6056 -3.99301
rtoes 1.95347
lfemur -42.7196 5.15399 -12.5921
ltibia 59.3532
lfoot 10.466 5.8701
ltoes 30.7992
293
root 9.64661 13.2386 5.06804 -137.895 -85.5899 112.837
lowerback 34.5151 1.57716 -1.64
upperback 13.2533 -0.37153 -1.51187
thorax -2.95567 -0.931014 -0.552637
lowerneck -10.3957 -7.3274 -9.74631
upperneck 34.6124 -17.0006 16.4236
head 16.7386 -7.24166 5.67577
rclavicle -4.09993e-015 2.68359e-015
rhumerus 1.39879 18.3224 -86.7142
rradius 45.5847
rwrist 23.3073
rhand -34.1836 41.1415
rfingers 7.12502
rthumb -7.35677 11.2894
lclavicle -4.09993e-015 2.68359e-015
lhumerus 9.61366 -13.4838 82.9315
lradius 33.2725
lwrist 18.0208
lhand 33.0404 -48.2
lfingers 7.12502
lthumb 56.4177 -31.139
rfemur -45.5642 -9.49147 7.8519
rtibia 64.154
rfoot 9.5382 -3.83946
rtoes 2.36898
lfemur -42.7491 5.21571 -12.4752
ltibia 59.3457
lfoot 10.589 5.57103
ltoes 30.5515
294
root 9.63764 13.2272 5.07253 -138.849 -85.7684 113.825
lowerback 34.9457 1.41667 -0.944496
upperback 12.9804 -0.349598 -1.69398
thorax -3.40642 -0.87373 -1.11073
lowerneck -10.2308 -7.38648 -9.78775
upperneck 34.7527 -17.2335 16.5803
head 16.8572 -7.34654 5.72372
rclavicle 2.43511e-015 -1.02374e-014
rhumerus 0.721816 17.822 -87.1601
rradius 45.6843
rwrist 22.9756
rhand -34.3015 40.6019
rfingers 7.12502
rthumb -7.47056 10.7539
lclavicle 2.43511e-015 -1.02374e-014
lhumerus 9.31045 -8.61694 83.7745
lradius 41.9167
lwrist 85.0052
lhand 27.952 49.8991
lfingers 7.12502
lthumb 51.8566 70.0895
rfemur -45.6101 -9.77858 8.09556
rtibia 64.1935
rfoot 9.55325 -3.41177
rtoes 0.2046
lfemur -42.8555 5.22405 -12.3085
ltibia 59.3984
lfoot 10.6634 5.48278
ltoes 30.7251
295
root 9.63684 13.2227 5.07705 -141.022 -85.9277 116.044
lowerback 35.4808 1.32748 -0.126475
upperback 12.7029 -0.191433 -1.82667
thorax -3.89097 -0.7536 -1.72838
lowerneck -9.95033 -7.65034 -10.0091
upperneck 34.6135 -17.7312 16.9016
head 16.9064 -7.57399 5.81093
rclavicle -6.90777e-015 2.88238e-015
rhumerus 0.146751 17.1929 -87.3196
rradius 45.9251
rwrist 22.764
rhand -34.495 40.3637
rfingers 7.12502
rthumb -7.65735 10.5224
lclavicle -6.90777e-015 2.88238e-015
lhumerus 9.08283 -9.58258 83.7856
lradius 41.6369
lwrist 82.5081
lhand 32.2789 47.689
lfingers 7.12502
lthumb 55.7432 65.2761
rfemur -45.6133 -9.70365 8.35169
rtibia 64.1763
rfoot 9.70694 -3.30652
rtoes -1.2112
lfemur -42.97 5.22069 -12.0509
ltibia 59.4655
lfoot 10.5955 5.77914
ltoes 31.9107
296
root 9.6379 13.2257 5.0763 -141.971 -85.9055 117.075
lowerback 35.4495 1.4425 -0.402201
upperback 12.7081 -0.125772 -1.639
thorax -3.87119 -0.737181 -1.40919
lowerneck -9.82817 -7.71974 -10.1521
upperneck 34.4327 -17.7403 16.8869
head 16.7925 -7.60189 5.81997
rclavicle 5.64051e-015 1.19271e-015
rhumerus -0.0416789 17.6757 -87.0708
rradius 46.4424
rwrist 22.7176
rhand -34.7325 40.1179
rfingers 7.12502
rthumb -7.88658 10.285
lclavicle 5.64051e-015 1.19271e-015
lhumerus 8.72797 9.1008 86.6309
lradius 36.6081
lwrist 208.606
lhand -65.6514 1.09326
lfingers 7.12502
lthumb -37.5136 27.0232
rfemur -45.7116 -9.57727 8.41621
rtibia 64.1696
rfoot 9.8506 -3.35604
rtoes -0.898508
lfemur -43.0765 5.3275 -12.0089
ltibia 59.5132
lfoot 10.5544 5.82628
ltoes 32.2523
297
root 9.63359 13.2303 5.07591 -143.693 -85.9581 118.979
lowerback 35.1777 1.63253 -0.814464
upperback 12.7625 0.0111051 -1.2782
thorax -3.71463 -0.695207 -0.862334
lowerneck -9.77787 -7.77829 -10.2352
upperneck 34.2664 -17.6925 16.7655
head 16.6668 -7.59987 5.77886
rclavicle -5.55355e-015 8.05078e-015
rhumerus -0.132028 18.2595 -86.4645
rradius 46.9705
rwrist 22.6512
rhand -34.8999 39.7549
rfingers 7.12502
rthumb -8.04818 9.92813
lclavicle -5.55355e-015 8.05078e-015
lhumerus 8.94969 -8.39741 84.126
lradius 42.4934
lwrist 88.3274
lhand 24.7816 51.3421
lfingers 7.12502
lthumb 48.9605 73.094
rfemur -45.8882 -9.50116 8.58869
rtibia 64.1687
rfoot 9.85165 -3.50267
rtoes -0.458643
lfemur -43.2578 5.52595 -11.9327
ltibia 59.5242
lfoot 10.6864 5.36941
ltoes 30.5339
298
root 9.62823 13.2346 5.06884 -143.629 -85.8995 119.054
lowerback 35.0288 1.81307 -1.11094
upperback 12.8778 0.146581 -1.10182
thorax -3.53752 -0.650005 -0.568427
lowerneck -9.88953 -7.94627 -10.2911
upperneck 33.9327 -17.7736 16.7184
head 16.5331 -7.62705 5.72284
rclavicle -2.82336e-015 -6.08778e-016
rhumerus -0.0254899 18.6026 -85.9132
rradius 47.2246
rwrist 22.2446
rhand -35.2137 39.8276
rfingers 7.12502
rthumb -8.35102 10.0127
lclavicle -2.82336e-015 -6.08778e-016
lhumerus 9.22915 -8.82042 84.2205
lradius 42.2283
lwrist 84.8917
lhand 28.8409 49.0783
lfingers 7.12502
lthumb 52.6619 68.7824
rfemur -46.0478 -9.29484 8.57436
rtibia 64.1945
rfoot 9.86766 -3.65684
rtoes -1.01154
lfemur -43.3508 5.69696 -11.9872
ltibia 59.4986
lfoot 10.7262 5.18457
ltoes 29.8581
